<?xml version="1.0" standalone="no"?><!DOCTYPE svg PUBLIC "-//W3C//DTD SVG 1.1//EN" "http://www.w3.org/Graphics/SVG/1.1/DTD/svg11.dtd"><svg class="icon" width="64px" height="64.00px" viewBox="0 0 1024 1024" version="1.1" xmlns="http://www.w3.org/2000/svg"><path d="M773.12 549.973333m-144.213333 0a144.213333 144.213333 0 1 0 288.426666 0 144.213333 144.213333 0 1 0-288.426666 0Z" fill="#FF354A" /><path d="M442.88 898.346667C257.28 898.346667 106.666667 747.733333 106.666667 561.92v-142.933333c0-47.146667 38.186667-85.333333 85.333333-85.333334h501.973333c47.146667 0 85.333333 38.186667 85.333334 85.333334v142.933333c0 185.813333-150.613333 336.426667-336.426667 336.426667z" fill="#2953FF" /><path d="M378.88 253.653333v-85.333333c0-23.466667 19.2-42.666667 42.666667-42.666667s42.666667 19.2 42.666666 42.666667v85.333333a42.666667 42.666667 0 1 1-85.333333 0zM553.173333 232.32v-42.666667c0-23.466667 19.2-42.666667 42.666667-42.666666s42.666667 19.2 42.666667 42.666666v42.666667c0 23.466667-19.2 42.666667-42.666667 42.666667-23.68 0-42.666667-18.986667-42.666667-42.666667zM204.8 232.32v-42.666667c0-23.466667 19.2-42.666667 42.666667-42.666666s42.666667 19.2 42.666666 42.666666v42.666667a42.666667 42.666667 0 1 1-85.333333 0z" fill="#FCCA1E" /></svg>